<svg xmlns="http://www.w3.org/2000/svg" viewBox="0 0 36 36"><defs><style>.cls-1{fill:#006b31;}.cls-2{fill:#f7af00;}.cls-3{fill:none;}</style></defs><g id="Warstwa_2" data-name="Warstwa 2"><g id="Warstwa_1-2" data-name="Warstwa 1"><circle class="cls-1" cx="15.75" cy="26.25" r="2.25"/><path class="cls-1" d="M28.52,16.5,27,22.5H14.47a1.89,1.89,0,0,1-1.78-1.44V21L10.62,9H7.5V7.5h4.38l2.27,13.2a.37.37,0,0,0,.32.3H25.8L27,16.5Z"/><circle class="cls-1" cx="25.15" cy="26.25" r="2.25"/><path class="cls-2" d="M25.42,6.53h-.2l.14-.1Z"/><path class="cls-1" d="M19.55,16.25l0,1.8-3-2.92,2.86-2.82,0,1.79a4.87,4.87,0,0,0,5-4.92,2.15,2.15,0,0,0,0-.23h2.19a2.46,2.46,0,0,1,0,.26A6.94,6.94,0,0,1,19.55,16.25Z"/><rect class="cls-3" width="36" height="36"/></g></g></svg>